<svg width="493" height="159" viewBox="0 0 493 159" fill="none" xmlns="http://www.w3.org/2000/svg">
<path d="M93.2011 16.8945C93.5527 16.8945 93.7284 17.0938 93.7284 17.4922C93.7284 17.6328 93.6698 17.7617 93.5527 17.8789C91.5839 19.8477 89.3105 20.832 86.7323 20.832C86.123 20.832 85.4433 20.4922 84.6933 19.8125C83.9433 19.1094 83.5683 18.1016 83.5683 16.7891C83.5683 15.4766 84.3652 14.0234 85.9589 12.4297C87.5527 10.8125 89.7675 9.28906 92.6034 7.85938C95.4628 6.40625 99.0253 5.11719 103.291 3.99219C107.557 2.86719 111.389 2.30469 114.787 2.30469C118.185 2.30469 120.975 2.58594 123.154 3.14844C125.334 3.6875 127.033 4.36719 128.252 5.1875C129.494 5.98438 130.514 6.88672 131.31 7.89453C132.646 9.58203 133.314 11.3047 133.314 13.0625C133.314 14.7969 132.752 16.5898 131.627 18.4414C130.502 20.293 129.037 21.9453 127.232 23.3984C125.451 24.8281 123.4 26.1641 121.08 27.4062C116.744 29.7031 112.103 31.3906 107.158 32.4688C108.002 33.3359 109.783 35.5156 112.502 39.0078C115.244 42.4766 117.74 45.3828 119.99 47.7266C122.264 50.0703 124.021 51.2422 125.264 51.2422L126.424 50.8203C126.682 50.8203 126.81 50.9258 126.81 51.1367C126.81 51.3242 126.377 51.8984 125.51 52.8594C124.666 53.7969 123.928 54.5117 123.295 55.0039C122.662 55.4961 121.795 55.7422 120.693 55.7422C119.615 55.7422 118.385 55.2148 117.002 54.1602C115.619 53.1055 114.107 51.6172 112.467 49.6953C110.826 47.7734 109.35 45.9688 108.037 44.2812C106.725 42.5703 105.225 40.5664 103.537 38.2695C101.85 35.9492 100.689 34.3789 100.057 33.5586C99.8222 33.9336 99.2245 34.8711 98.2636 36.3711C97.3027 37.8477 96.5995 38.9375 96.1542 39.6406C95.7089 40.3438 95.0644 41.375 94.2206 42.7344C93.3769 44.0703 92.7206 45.1484 92.2519 45.9688C90.9628 48.1484 90.0605 49.7773 89.5448 50.8555C89.0527 51.9336 88.2323 52.4727 87.0839 52.4727L85.8534 52.4375L84.7988 52.4727C83.3456 52.4727 82.6191 51.8633 82.6191 50.6445C82.6191 49.7305 83.0058 48.4297 83.7792 46.7422C84.5761 45.0312 88.748 38.6914 96.2948 27.7227C103.842 16.7305 108.002 10.8711 108.775 10.1445C109.549 9.39453 110.123 8.97266 110.498 8.87891C110.779 8.66797 110.967 8.5625 111.06 8.5625L111.693 8.66797L112.291 8.5625C112.502 8.5625 112.689 8.65625 112.853 8.84375C113.018 9.00781 113.135 9.11328 113.205 9.16016C114.189 9.88672 114.682 10.4961 114.682 10.9883C114.682 11.4805 114.553 11.9609 114.295 12.4297C114.06 12.875 113.393 13.8945 112.291 15.4883C111.189 17.082 109.736 19.1562 107.932 21.7109C106.15 24.2422 104.861 26.082 104.064 27.2305C105.986 27.1367 108.295 26.5508 110.99 25.4727C113.685 24.3945 116.205 23.1055 118.549 21.6055C120.916 20.082 122.932 18.4414 124.596 16.6836C126.283 14.9023 127.127 13.3555 127.127 12.043C127.127 11.3398 126.764 10.707 126.037 10.1445C125.31 9.55859 124.396 9.10156 123.295 8.77344C121.092 8.11719 118.607 7.78906 115.842 7.78906C113.076 7.78906 109.572 8.38672 105.33 9.58203C101.088 10.7773 97.9941 11.9258 96.0488 13.0273C94.1034 14.1055 92.6972 15.0312 91.83 15.8047C90.9628 16.5547 90.5292 17.082 90.5292 17.3867C90.5292 17.5508 90.7636 17.6328 91.2323 17.6328C91.7245 17.6328 92.1581 17.5156 92.5331 17.2812C92.9081 17.0234 93.1308 16.8945 93.2011 16.8945ZM148.398 26.7031C148.398 28.25 147.765 29.6094 146.499 30.7812C145.257 31.9531 143.839 32.5391 142.245 32.5391C141.73 32.5391 141.39 32.4219 141.226 32.1875C141.062 31.9297 140.98 31.6016 140.98 31.2031C140.98 30.8047 141.027 30.418 141.12 30.043C140.277 30.3242 139.339 30.7578 138.308 31.3438C137.277 31.9297 136.011 32.7969 134.511 33.9453C133.011 35.0938 132.261 35.9492 132.261 36.5117C132.261 36.6992 132.531 36.793 133.07 36.793C133.632 36.793 134.488 36.6055 135.636 36.2305C136.785 35.832 137.581 35.6328 138.027 35.6328C138.495 35.6328 138.8 35.6562 138.941 35.7031C139.245 35.8672 139.574 36.2305 139.925 36.793C140.277 37.332 140.453 37.7656 140.453 38.0938C140.453 38.3984 140.148 38.8086 139.538 39.3242C138.929 39.8398 138.238 40.2383 137.464 40.5195C136.691 40.7773 136.175 40.9766 135.917 41.1172C130.972 43.8828 128.499 45.7812 128.499 46.8125C128.499 48.6406 130.058 49.5547 133.175 49.5547C135.167 49.5547 137.171 48.9219 139.187 47.6562C140.898 46.5781 142.433 45.4883 143.792 44.3867C145.175 43.2617 146.042 42.5703 146.394 42.3125C146.769 42.0547 147.05 41.9258 147.238 41.9258C147.847 41.9258 148.152 42.6055 148.152 43.9648C148.152 45.3242 148.07 46.2266 147.906 46.6719C147.742 47.0938 147.273 47.6211 146.499 48.2539C141.484 52.332 136.738 54.3711 132.261 54.3711C129.87 54.3711 127.96 54.043 126.531 53.3867C123.906 52.1914 122.593 50.3633 122.593 47.9023C122.593 44.668 124.831 42.2188 129.308 40.5547C128.417 40.1562 127.843 39.6523 127.585 39.043C127.328 38.4102 127.199 37.4141 127.199 36.0547C127.199 34.6719 127.831 33.2188 129.097 31.6953C130.386 30.1484 131.956 28.8828 133.808 27.8984C137.933 25.6719 141.613 24.5586 144.847 24.5586C145.62 24.5586 146.406 24.7461 147.203 25.1211C147.999 25.4961 148.398 26.0234 148.398 26.7031ZM165.204 15.5938L165.837 15.5234C166.188 15.5234 166.47 15.8281 166.68 16.4375C166.891 17.0469 166.997 17.457 166.997 17.668C166.997 17.8789 166.763 18.2773 166.294 18.8633L156.274 34.1211C159.79 30.6055 163.364 28.0391 166.997 26.4219C168.403 25.8125 169.669 25.5078 170.794 25.5078C171.942 25.5078 172.856 25.8828 173.536 26.6328C174.239 27.3594 174.591 28.2734 174.591 29.375C174.591 30.4766 174.286 31.8359 173.677 33.4531C173.067 35.0703 172.235 36.793 171.18 38.6211C170.149 40.4492 168.884 42.2891 167.384 44.1406C165.907 45.9922 164.348 47.668 162.708 49.168C161.091 50.668 159.321 51.8867 157.399 52.8242C155.477 53.7617 153.79 54.2305 152.337 54.2305C149.407 54.2305 147.942 52.8828 147.942 50.1875C145.2 54.3828 142.036 59.3516 138.45 65.0938C134.864 70.8359 132.942 73.8711 132.684 74.1992C132.427 74.5273 132.216 74.6914 132.052 74.6914C131.864 74.6914 131.595 74.5859 131.243 74.375C130.868 74.1641 130.481 73.8125 130.083 73.3203C129.684 72.8281 129.485 72.1133 129.485 71.1758C129.462 70.2383 129.731 69.2891 130.294 68.3281C133.458 63.0547 139.552 53.1406 148.575 38.5859C157.622 24.0078 162.52 16.4727 163.27 15.9805C163.692 15.6992 164.114 15.5586 164.536 15.5586L165.204 15.5938ZM168.298 31.7656C168.298 31.2734 168.063 31.0273 167.595 31.0273C166.329 31.0273 163.645 32.9727 159.544 36.8633C155.466 40.7539 152.22 44.3047 149.805 47.5156C150.415 48.2656 151.317 48.6406 152.513 48.6406C153.708 48.6406 155.255 47.9961 157.153 46.707C159.052 45.418 160.809 43.8945 162.427 42.1367C164.044 40.3555 165.427 38.4922 166.575 36.5469C167.723 34.6016 168.298 33.0078 168.298 31.7656ZM196.248 26.2109C196.951 26.2109 197.666 26.5273 198.393 27.1602C199.143 27.793 199.518 28.7656 199.518 30.0781C199.518 31.3672 199.061 33.0547 198.147 35.1406C197.233 37.2031 195.979 39.3125 194.385 41.4688C192.791 43.6016 191.033 45.6172 189.112 47.5156C187.213 49.3906 185.151 50.9375 182.924 52.1562C180.721 53.3516 178.717 53.9492 176.912 53.9492C175.108 53.9492 173.655 53.3867 172.553 52.2617C171.475 51.1133 170.936 49.5312 170.936 47.5156C170.936 45.4766 171.428 43.2266 172.412 40.7656C173.42 38.3047 174.709 36.1367 176.28 34.2617C177.85 32.3633 179.549 30.6641 181.377 29.1641C185.198 26.0938 188.549 24.5586 191.432 24.5586C192.721 24.5586 193.694 24.875 194.35 25.5078C194.584 25.7188 194.701 25.9062 194.701 26.0703V26.2812C195.03 26.2344 195.545 26.2109 196.248 26.2109ZM192.698 30.8867H192.451C191.631 30.8867 191.221 30.2891 191.221 29.0938C189.51 29.6562 187.717 30.6406 185.842 32.0469C183.967 33.4531 182.291 35.1172 180.815 37.0391C177.815 40.8828 176.291 44.1289 176.244 46.7773C176.244 48.0898 176.725 48.7461 177.686 48.7461C178.647 48.7461 180.076 48.1133 181.975 46.8477C183.873 45.582 185.748 43.7773 187.6 41.4336C189.475 39.0898 190.869 37.0625 191.783 35.3516C192.721 33.6172 193.19 32.4453 193.19 31.8359C193.19 31.2031 193.026 30.8867 192.698 30.8867ZM201.172 45.9688L201.136 46.5312C201.136 47.1172 201.359 47.6211 201.804 48.043C202.25 48.4648 202.66 48.6758 203.035 48.6758C205.847 48.6758 208.332 48.2539 210.488 47.4102C212.668 46.5664 213.758 45.7227 213.758 44.8789C213.758 44.4805 213.359 44.1406 212.562 43.8594C211.789 43.5547 210.465 43.1914 208.59 42.7695C206.738 42.3242 205.39 41.9844 204.547 41.75C203.703 41.4922 203.035 41.2578 202.543 41.0469C202.05 40.8359 201.547 40.543 201.031 40.168C199.929 39.3945 199.379 38.2461 199.379 36.7227C199.379 35.1758 199.941 33.6523 201.066 32.1523C202.215 30.6289 203.644 29.3281 205.355 28.25C207.066 27.1719 208.906 26.2227 210.875 25.4023C214.765 23.7852 218.035 22.9766 220.683 22.9766C223.285 22.9766 224.89 23.5391 225.5 24.6641C225.687 25.0625 225.781 25.5078 225.781 26V26.2461C225.781 27.4883 225.511 28.4609 224.972 29.1641C224.457 29.8672 223.625 30.5 222.476 31.0625C221.351 31.625 220.449 31.9062 219.769 31.9062C219.113 31.9062 218.691 31.8594 218.504 31.7656C218.34 31.6719 218.199 31.5547 218.082 31.4141C217.965 31.25 217.812 31.1328 217.625 31.0625C217.461 30.9922 217.379 30.8164 217.379 30.5352C217.379 30.2539 217.496 29.9727 217.73 29.6914C217.965 29.3867 218.129 29.0703 218.222 28.7422C216.675 28.8125 215.058 29.1758 213.371 29.832C211.683 30.4648 210.23 31.1797 209.011 31.9766C207.816 32.7734 206.82 33.5352 206.023 34.2617C205.226 34.9883 204.828 35.5273 204.828 35.8789C204.828 36.207 205.367 36.4766 206.445 36.6875C211.297 37.6484 214.484 38.4805 216.008 39.1836C217.531 39.8867 218.586 40.6836 219.172 41.5742C219.758 42.4648 220.05 43.2734 220.05 44C220.05 45.5 219.453 46.918 218.258 48.2539C217.062 49.5898 215.586 50.6797 213.828 51.5234C210.054 53.375 206.761 54.3008 203.949 54.3008C201.16 54.3008 199.226 53.8672 198.148 53C197.093 52.1562 196.566 51.1484 196.566 49.9766C196.566 48.8047 196.859 47.7266 197.445 46.7422C198.054 45.7344 198.828 45.2305 199.765 45.2305C200.703 45.2305 201.172 45.4766 201.172 45.9688ZM245.259 14.3984C245.259 15.7344 244.638 17.082 243.396 18.4414C242.153 19.7773 240.853 20.4453 239.493 20.4453C238.157 20.4453 237.489 19.7422 237.489 18.3359C237.489 16.9297 238.075 15.5938 239.247 14.3281C240.443 13.0391 241.755 12.3945 243.185 12.3945C243.818 12.3945 244.321 12.5703 244.696 12.9219C245.071 13.2734 245.259 13.7656 245.259 14.3984ZM239.564 45.0898C239.564 45.793 239.493 46.2969 239.353 46.6016C238.204 48.9453 236.376 50.8438 233.868 52.2969C231.36 53.7266 229.181 54.4414 227.329 54.4414C225.478 54.4414 223.884 53.8203 222.548 52.5781C221.212 51.3359 220.544 50.0703 220.544 48.7812C220.544 47.4922 221.189 45.6172 222.478 43.1562C223.767 40.6953 225.056 38.4219 226.345 36.3359C227.634 34.25 228.278 33.125 228.278 32.9609C228.278 32.7734 228.032 32.4219 227.54 31.9062C227.071 31.3906 226.837 31.0156 226.837 30.7812C226.837 30.5234 227.318 29.8789 228.278 28.8477C229.263 27.793 230.446 26.7617 231.829 25.7539C233.235 24.7227 234.302 24.207 235.028 24.207C235.778 24.207 236.446 24.5352 237.032 25.1914C237.618 25.8477 237.911 26.4453 237.911 26.9844C237.911 27.5234 235.122 32.5977 229.544 42.207C229.474 42.3477 229.275 42.6641 228.946 43.1562C228.642 43.625 228.396 44.0234 228.208 44.3516C228.044 44.6562 227.845 45.0312 227.61 45.4766C227.142 46.4141 226.907 47.1992 226.907 47.832C226.907 48.6289 227.446 49.0273 228.525 49.0273C229.603 49.0273 230.716 48.6641 231.864 47.9375C233.036 47.1875 234.044 46.3672 234.888 45.4766C237.091 43.1094 238.345 41.9258 238.65 41.9258C239.259 41.9258 239.564 42.9805 239.564 45.0898ZM259.745 7.71875L261.186 8.07031C261.397 8.07031 261.585 8.17578 261.749 8.38672C261.913 8.59766 261.995 8.79688 261.995 8.98438C261.995 9.17187 261.749 9.67578 261.256 10.4961C260.764 11.3164 260.178 12.2539 259.499 13.3086C258.842 14.3398 258.491 14.9023 258.444 14.9961C260.272 14.8555 261.561 14.7852 262.311 14.7852C263.085 14.7852 263.612 14.8438 263.893 14.9609C264.174 15.0547 264.491 15.3477 264.842 15.8398C265.217 16.3086 265.557 16.6719 265.862 16.9297C266.167 17.1641 266.319 17.5273 266.319 18.0195C266.319 18.5117 266.014 18.9336 265.405 19.2852C264.819 19.6133 264.186 19.8125 263.506 19.8828C258.069 20.4219 255.069 20.7031 254.506 20.7266C252.608 23.6328 249.948 28.168 246.526 34.332C243.128 40.4727 241.323 44.3164 241.112 45.8633C241.018 46.5664 240.971 47.1406 240.971 47.5859C240.971 48.5 241.452 48.957 242.413 48.957C243.374 48.957 244.44 48.5938 245.612 47.8672C246.784 47.1172 247.862 46.3086 248.846 45.4414C251.471 43.0977 252.878 41.9258 253.065 41.9258C253.674 41.9258 253.979 42.9805 253.979 45.0898C253.979 46.2383 253.452 47.2695 252.397 48.1836C250.03 50.2227 248.038 51.7578 246.42 52.7891C244.803 53.8203 243.186 54.3359 241.569 54.3359C241.217 54.3359 240.889 54.3008 240.585 54.2305C238.71 53.8789 237.327 53.1992 236.436 52.1914C235.569 51.1602 235.135 49.7773 235.135 48.043C235.159 46.3086 235.674 44.2109 236.682 41.75C237.713 39.2656 239.003 36.6289 240.549 33.8398C243.081 29.293 245.612 25.0273 248.143 21.043L246.807 21.2188C244.088 21.5234 242.506 21.6758 242.061 21.6758H241.745C241.065 21.6758 240.409 21.5469 239.776 21.2891C239.143 21.0078 238.827 20.668 238.827 20.2695C238.827 19.8711 238.991 19.4844 239.319 19.1094C239.67 18.7344 239.881 18.4414 239.952 18.2305C240.116 17.7148 240.725 17.1406 241.78 16.5078C242.858 15.875 243.667 15.5469 244.206 15.5234C244.745 15.4766 245.26 15.4414 245.753 15.418C246.268 15.3945 246.831 15.3711 247.44 15.3477C248.073 15.3242 248.553 15.3008 248.881 15.2773L252.045 15.1367C254.014 12.1836 255.362 10.2852 256.088 9.44141C256.838 8.59766 257.272 8.14062 257.389 8.07031C257.506 7.97656 257.741 7.92969 258.092 7.92969L259.745 7.71875ZM273.457 26.2109C274.16 26.2109 274.875 26.5273 275.602 27.1602C276.352 27.793 276.727 28.7656 276.727 30.0781C276.727 31.3672 276.27 33.0547 275.355 35.1406C274.441 37.2031 273.188 39.3125 271.594 41.4688C270 43.6016 268.242 45.6172 266.32 47.5156C264.422 49.3906 262.359 50.9375 260.133 52.1562C257.93 53.3516 255.926 53.9492 254.121 53.9492C252.316 53.9492 250.863 53.3867 249.762 52.2617C248.684 51.1133 248.145 49.5312 248.145 47.5156C248.145 45.4766 248.637 43.2266 249.621 40.7656C250.629 38.3047 251.918 36.1367 253.488 34.2617C255.059 32.3633 256.758 30.6641 258.586 29.1641C262.406 26.0938 265.758 24.5586 268.641 24.5586C269.93 24.5586 270.902 24.875 271.559 25.5078C271.793 25.7188 271.91 25.9062 271.91 26.0703V26.2812C272.238 26.2344 272.754 26.2109 273.457 26.2109ZM269.906 30.8867H269.66C268.84 30.8867 268.43 30.2891 268.43 29.0938C266.719 29.6562 264.926 30.6406 263.051 32.0469C261.176 33.4531 259.5 35.1172 258.023 37.0391C255.023 40.8828 253.5 44.1289 253.453 46.7773C253.453 48.0898 253.934 48.7461 254.895 48.7461C255.855 48.7461 257.285 48.1133 259.184 46.8477C261.082 45.582 262.957 43.7773 264.809 41.4336C266.684 39.0898 268.078 37.0625 268.992 35.3516C269.93 33.6172 270.398 32.4453 270.398 31.8359C270.398 31.2031 270.234 30.8867 269.906 30.8867ZM281.227 14.6094C280.594 15.2188 278.836 16.332 275.953 17.9492C273.07 19.5664 271.277 20.375 270.574 20.375C269.895 20.375 269.555 20.0703 269.555 19.4609C269.555 19.25 269.613 19.0273 269.73 18.793C270.246 17.4336 271.008 16.2031 272.016 15.1016C273.047 13.9766 274.172 12.9219 275.391 11.9375C276.609 10.9531 277.676 10.1445 278.59 9.51172C279.504 8.85547 280.137 8.36328 280.488 8.03516C280.84 7.70703 281.086 7.33203 281.227 6.91016C281.391 6.48828 281.707 6.27734 282.176 6.27734C282.645 6.27734 283.09 6.6875 283.512 7.50781C283.957 8.30469 284.18 9.06641 284.18 9.79297C284.18 11.7148 283.195 13.3203 281.227 14.6094ZM286.009 33.8398C291.54 27.5586 296.251 24.418 300.142 24.418C301.103 24.418 301.888 24.7109 302.497 25.2969C303.13 25.8594 303.447 26.5977 303.447 27.5117C303.447 28.4258 302.79 29.9609 301.478 32.1172C300.189 34.25 298.994 36.0547 297.892 37.5312C297.306 38.2812 296.638 38.6562 295.888 38.6562C295.162 38.6562 294.587 38.3867 294.165 37.8477C293.767 37.3086 293.568 36.6758 293.568 35.9492C293.568 34.332 294.435 32.5039 296.169 30.4648L296.099 30.3945C295.326 30.4648 293.404 31.9883 290.333 34.9648C287.287 37.9414 284.685 40.6133 282.529 42.9805C280.396 45.3242 278.076 48.1836 275.568 51.5586C274.841 52.5664 274.22 53.0703 273.705 53.0703C273.212 53.0703 272.556 52.918 271.736 52.6133C270.892 52.2852 270.388 52.0508 270.224 51.9102C270.037 51.7695 269.943 51.5352 269.943 51.207C269.943 50.8789 270.037 50.5039 270.224 50.082C270.412 49.6367 270.763 49.0156 271.279 48.2188C271.771 47.4219 272.521 46.1328 273.529 44.3516C274.56 42.5703 276.154 39.875 278.31 36.2656C280.466 32.6562 281.755 30.4766 282.177 29.7266C283.068 28.1797 283.794 27.0547 284.357 26.3516C285.412 25.0156 287.193 24.3477 289.701 24.3477C290.263 24.3477 290.544 24.6992 290.544 25.4023C290.544 26.5039 289.525 28.5781 287.486 31.625L286.009 33.8398ZM321.132 14.3984C321.132 15.7344 320.511 17.082 319.268 18.4414C318.026 19.7773 316.725 20.4453 315.366 20.4453C314.03 20.4453 313.362 19.7422 313.362 18.3359C313.362 16.9297 313.948 15.5938 315.12 14.3281C316.315 13.0391 317.628 12.3945 319.057 12.3945C319.69 12.3945 320.194 12.5703 320.569 12.9219C320.944 13.2734 321.132 13.7656 321.132 14.3984ZM315.436 45.0898C315.436 45.793 315.366 46.2969 315.225 46.6016C314.077 48.9453 312.249 50.8438 309.741 52.2969C307.233 53.7266 305.054 54.4414 303.202 54.4414C301.35 54.4414 299.757 53.8203 298.421 52.5781C297.085 51.3359 296.417 50.0703 296.417 48.7812C296.417 47.4922 297.061 45.6172 298.35 43.1562C299.64 40.6953 300.929 38.4219 302.218 36.3359C303.507 34.25 304.151 33.125 304.151 32.9609C304.151 32.7734 303.905 32.4219 303.413 31.9062C302.944 31.3906 302.71 31.0156 302.71 30.7812C302.71 30.5234 303.19 29.8789 304.151 28.8477C305.136 27.793 306.319 26.7617 307.702 25.7539C309.108 24.7227 310.175 24.207 310.901 24.207C311.651 24.207 312.319 24.5352 312.905 25.1914C313.491 25.8477 313.784 26.4453 313.784 26.9844C313.784 27.5234 310.995 32.5977 305.417 42.207C305.347 42.3477 305.147 42.6641 304.819 43.1562C304.515 43.625 304.268 44.0234 304.081 44.3516C303.917 44.6562 303.718 45.0312 303.483 45.4766C303.015 46.4141 302.78 47.1992 302.78 47.832C302.78 48.6289 303.319 49.0273 304.397 49.0273C305.475 49.0273 306.589 48.6641 307.737 47.9375C308.909 47.1875 309.917 46.3672 310.761 45.4766C312.964 43.1094 314.218 41.9258 314.522 41.9258C315.132 41.9258 315.436 42.9805 315.436 45.0898ZM335.301 26.2109C336.004 26.2109 336.719 26.5273 337.446 27.1602C338.196 27.793 338.571 28.7656 338.571 30.0781C338.571 31.3672 338.114 33.0547 337.2 35.1406C336.285 37.2031 335.032 39.3125 333.438 41.4688C331.844 43.6016 330.086 45.6172 328.164 47.5156C326.266 49.3906 324.203 50.9375 321.977 52.1562C319.774 53.3516 317.77 53.9492 315.965 53.9492C314.16 53.9492 312.707 53.3867 311.606 52.2617C310.528 51.1133 309.989 49.5312 309.989 47.5156C309.989 45.4766 310.481 43.2266 311.465 40.7656C312.473 38.3047 313.762 36.1367 315.332 34.2617C316.903 32.3633 318.602 30.6641 320.43 29.1641C324.25 26.0938 327.602 24.5586 330.485 24.5586C331.774 24.5586 332.746 24.875 333.403 25.5078C333.637 25.7188 333.754 25.9062 333.754 26.0703V26.2812C334.082 26.2344 334.598 26.2109 335.301 26.2109ZM331.75 30.8867H331.504C330.684 30.8867 330.274 30.2891 330.274 29.0938C328.563 29.6562 326.77 30.6406 324.895 32.0469C323.02 33.4531 321.344 35.1172 319.867 37.0391C316.867 40.8828 315.344 44.1289 315.297 46.7773C315.297 48.0898 315.778 48.7461 316.739 48.7461C317.7 48.7461 319.129 48.1133 321.028 46.8477C322.926 45.582 324.801 43.7773 326.653 41.4336C328.528 39.0898 329.922 37.0625 330.836 35.3516C331.774 33.6172 332.242 32.4453 332.242 31.8359C332.242 31.2031 332.078 30.8867 331.75 30.8867ZM394.05 0.300781C394.495 0.300781 394.847 0.441406 395.105 0.722656C395.362 1.00391 395.491 1.29687 395.491 1.60156C395.491 1.88281 395.257 2.42187 394.788 3.21875C394.343 3.99219 393.3 5.70313 391.659 8.35156C390.019 10.9766 388.741 13.0391 387.827 14.5391C382.507 23.1875 378.335 30.5 375.312 36.4766C372.288 42.4531 370.777 46.0625 370.777 47.3047V47.5859C370.777 48.5469 371.128 49.0273 371.831 49.0273C372.534 49.0273 373.378 48.6992 374.362 48.043C375.37 47.3867 376.249 46.6836 376.999 45.9336C377.749 45.1836 378.499 44.4102 379.249 43.6133C380.023 42.793 380.491 42.3125 380.655 42.1719C380.82 42.0312 381.03 41.9609 381.288 41.9609C381.687 41.9609 381.945 42.2188 382.062 42.7344C382.179 43.2266 382.237 43.9297 382.237 44.8438C382.237 45.7344 382.167 46.3203 382.027 46.6016C381.347 47.9141 379.847 49.5195 377.527 51.418C375.23 53.293 373.05 54.2305 370.987 54.2305C367.472 54.2305 365.714 52.7422 365.714 49.7656C365.714 47.9141 366.417 45.4883 367.823 42.4883C365.925 44.9492 363.991 47.0469 362.023 48.7812C358.366 51.9688 355.191 53.5625 352.495 53.5625C350.995 53.5625 349.882 53.0352 349.155 51.9805C348.452 50.9258 348.101 49.4141 348.101 47.4453C348.101 45.4531 348.874 43.0742 350.421 40.3086C351.968 37.543 353.89 35.0586 356.187 32.8555C358.507 30.6289 361.073 28.7773 363.886 27.3008C366.698 25.8008 369.288 25.0508 371.655 25.0508C372.405 25.0508 373.284 25.5078 374.292 26.4219C374.972 25.3438 376.226 23.1875 378.054 19.9531C383.796 10.2734 387.593 4.36719 389.445 2.23438C390.429 0.945312 391.964 0.300781 394.05 0.300781ZM372.148 29.7266C368.773 30.4766 365.632 32.0469 362.726 34.4375C359.82 36.8281 357.64 39.3359 356.187 41.9609C354.734 44.5625 354.007 46.25 354.007 47.0234C354.007 47.7969 354.171 48.1836 354.499 48.1836C355.905 48.1836 359.386 45.043 364.941 38.7617C367.706 35.668 370.109 32.6562 372.148 29.7266ZM402.313 26.7031C402.313 28.25 401.68 29.6094 400.415 30.7812C399.172 31.9531 397.755 32.5391 396.161 32.5391C395.645 32.5391 395.305 32.4219 395.141 32.1875C394.977 31.9297 394.895 31.6016 394.895 31.2031C394.895 30.8047 394.942 30.418 395.036 30.043C394.192 30.3242 393.255 30.7578 392.223 31.3438C391.192 31.9297 389.926 32.7969 388.426 33.9453C386.926 35.0938 386.176 35.9492 386.176 36.5117C386.176 36.6992 386.446 36.793 386.985 36.793C387.547 36.793 388.403 36.6055 389.551 36.2305C390.7 35.832 391.497 35.6328 391.942 35.6328C392.411 35.6328 392.715 35.6562 392.856 35.7031C393.161 35.8672 393.489 36.2305 393.84 36.793C394.192 37.332 394.368 37.7656 394.368 38.0938C394.368 38.3984 394.063 38.8086 393.454 39.3242C392.844 39.8398 392.153 40.2383 391.38 40.5195C390.606 40.7773 390.09 40.9766 389.833 41.1172C384.887 43.8828 382.415 45.7812 382.415 46.8125C382.415 48.6406 383.973 49.5547 387.09 49.5547C389.083 49.5547 391.087 48.9219 393.102 47.6562C394.813 46.5781 396.348 45.4883 397.708 44.3867C399.09 43.2617 399.958 42.5703 400.309 42.3125C400.684 42.0547 400.965 41.9258 401.153 41.9258C401.762 41.9258 402.067 42.6055 402.067 43.9648C402.067 45.3242 401.985 46.2266 401.821 46.6719C401.657 47.0938 401.188 47.6211 400.415 48.2539C395.399 52.332 390.653 54.3711 386.176 54.3711C383.786 54.3711 381.876 54.043 380.446 53.3867C377.821 52.1914 376.508 50.3633 376.508 47.9023C376.508 44.668 378.747 42.2188 383.223 40.5547C382.333 40.1562 381.758 39.6523 381.501 39.043C381.243 38.4102 381.114 37.4141 381.114 36.0547C381.114 34.6719 381.747 33.2188 383.012 31.6953C384.301 30.1484 385.872 28.8828 387.723 27.8984C391.848 25.6719 395.528 24.5586 398.762 24.5586C399.536 24.5586 400.321 24.7461 401.118 25.1211C401.915 25.4961 402.313 26.0234 402.313 26.7031ZM35.2242 130.504C35.7867 130.504 36.068 130.961 36.068 131.875C36.068 132.766 35.8687 134.312 35.4703 136.516C35.1656 137.992 33.4781 140.102 30.4078 142.844C26.7047 146.125 22.6383 148.469 18.2086 149.875C15.5367 150.719 12.9234 151.141 10.3687 151.141C7.83749 151.141 5.51718 150.074 3.40781 147.941C1.32187 145.785 0.2789 143.242 0.2789 140.312C0.2789 137.359 0.864838 134.312 2.03671 131.172C3.23203 128.008 4.82578 124.996 6.81796 122.137C8.83359 119.254 11.2008 116.488 13.9195 113.84C16.6617 111.191 19.5094 108.895 22.4625 106.949C25.4156 105.004 28.5094 103.457 31.7437 102.309C34.9781 101.16 38.0484 100.586 40.9547 100.586C43.2516 100.586 45.2086 101.418 46.8258 103.082C47.6695 103.973 48.0914 105.098 48.0914 106.457C48.0914 107.793 47.4352 109.492 46.1227 111.555C44.8102 113.594 43.2516 115.457 41.4469 117.145C39.6656 118.832 37.8141 120.262 35.8922 121.434C33.9937 122.605 32.4703 123.191 31.3219 123.191C30.1734 123.191 29.1891 122.84 28.3687 122.137C27.5484 121.41 27.1383 120.766 27.1383 120.203C27.1383 119.641 27.2555 119.02 27.4898 118.34C27.7477 117.66 28.0641 117.32 28.4391 117.32C28.3453 117.438 28.2984 117.555 28.2984 117.672C28.2984 117.953 28.6969 118.094 29.4937 118.094C30.3141 118.094 31.6734 117.379 33.5719 115.949C35.4703 114.52 37.1812 112.914 38.7047 111.133C40.2516 109.352 41.025 108.016 41.025 107.125C41.025 106.516 40.6148 106.211 39.7945 106.211C37.5914 106.211 34.5445 107.242 30.6539 109.305C26.7867 111.344 23.0836 113.98 19.5445 117.215C16.0055 120.449 12.9234 124.293 10.2984 128.746C7.69687 133.176 6.39609 137.16 6.39609 140.699C6.39609 142.176 6.78281 143.359 7.55624 144.25C8.35312 145.141 9.56015 145.586 11.1773 145.586C12.818 145.586 14.7516 145.117 16.9781 144.18C19.2047 143.242 21.3141 142.094 23.3062 140.734C25.3219 139.375 27.2203 137.98 29.0016 136.551C30.7828 135.121 32.2008 133.867 33.2555 132.789C34.3336 131.711 34.8844 131.066 34.9078 130.855C34.9312 130.621 35.0367 130.504 35.2242 130.504ZM59.0616 112.398C59.0616 113.734 58.4405 115.082 57.1983 116.441C55.9561 117.777 54.6553 118.445 53.2959 118.445C51.96 118.445 51.292 117.742 51.292 116.336C51.292 114.93 51.878 113.594 53.0498 112.328C54.2451 111.039 55.5576 110.395 56.9873 110.395C57.6201 110.395 58.1241 110.57 58.4991 110.922C58.8741 111.273 59.0616 111.766 59.0616 112.398ZM53.3662 143.09C53.3662 143.793 53.2959 144.297 53.1553 144.602C52.0069 146.945 50.1787 148.844 47.6709 150.297C45.1631 151.727 42.9834 152.441 41.1319 152.441C39.2803 152.441 37.6866 151.82 36.3506 150.578C35.0147 149.336 34.3467 148.07 34.3467 146.781C34.3467 145.492 34.9912 143.617 36.2803 141.156C37.5694 138.695 38.8584 136.422 40.1475 134.336C41.4366 132.25 42.0811 131.125 42.0811 130.961C42.0811 130.773 41.835 130.422 41.3428 129.906C40.8741 129.391 40.6397 129.016 40.6397 128.781C40.6397 128.523 41.1201 127.879 42.0811 126.848C43.0655 125.793 44.2491 124.762 45.6319 123.754C47.0381 122.723 48.1045 122.207 48.8311 122.207C49.5811 122.207 50.2491 122.535 50.835 123.191C51.4209 123.848 51.7139 124.445 51.7139 124.984C51.7139 125.523 48.9248 130.598 43.3467 140.207C43.2764 140.348 43.0772 140.664 42.7491 141.156C42.4444 141.625 42.1983 142.023 42.0108 142.352C41.8467 142.656 41.6475 143.031 41.4131 143.477C40.9444 144.414 40.71 145.199 40.71 145.832C40.71 146.629 41.2491 147.027 42.3272 147.027C43.4053 147.027 44.5186 146.664 45.667 145.938C46.8389 145.188 47.8467 144.367 48.6905 143.477C50.8936 141.109 52.1475 139.926 52.4522 139.926C53.0616 139.926 53.3662 140.98 53.3662 143.09ZM73.5473 124.703C73.5473 126.25 72.9145 127.609 71.6489 128.781C70.4067 129.953 68.9887 130.539 67.395 130.539C66.8794 130.539 66.5395 130.422 66.3755 130.188C66.2114 129.93 66.1294 129.602 66.1294 129.203C66.1294 128.805 66.1762 128.418 66.27 128.043C65.4262 128.324 64.4887 128.758 63.4575 129.344C62.4262 129.93 61.1606 130.797 59.6606 131.945C58.1606 133.094 57.4106 133.949 57.4106 134.512C57.4106 134.699 57.6801 134.793 58.2192 134.793C58.7817 134.793 59.6372 134.605 60.7856 134.23C61.9341 133.832 62.7309 133.633 63.1762 133.633C63.645 133.633 63.9497 133.656 64.0903 133.703C64.395 133.867 64.7231 134.23 65.0747 134.793C65.4262 135.332 65.602 135.766 65.602 136.094C65.602 136.398 65.2973 136.809 64.688 137.324C64.0786 137.84 63.3872 138.238 62.6137 138.52C61.8403 138.777 61.3247 138.977 61.0669 139.117C56.1216 141.883 53.6489 143.781 53.6489 144.812C53.6489 146.641 55.2075 147.555 58.3247 147.555C60.3169 147.555 62.3208 146.922 64.3364 145.656C66.0473 144.578 67.5825 143.488 68.9419 142.387C70.3247 141.262 71.1919 140.57 71.5434 140.312C71.9184 140.055 72.1997 139.926 72.3872 139.926C72.9966 139.926 73.3012 140.605 73.3012 141.965C73.3012 143.324 73.2192 144.227 73.0551 144.672C72.8911 145.094 72.4223 145.621 71.6489 146.254C66.6333 150.332 61.8872 152.371 57.4106 152.371C55.02 152.371 53.1098 152.043 51.6801 151.387C49.0551 150.191 47.7426 148.363 47.7426 145.902C47.7426 142.668 49.9809 140.219 54.4575 138.555C53.5669 138.156 52.9926 137.652 52.7348 137.043C52.477 136.41 52.3481 135.414 52.3481 134.055C52.3481 132.672 52.9809 131.219 54.2466 129.695C55.5356 128.148 57.1059 126.883 58.9575 125.898C63.0825 123.672 66.7622 122.559 69.9966 122.559C70.77 122.559 71.5551 122.746 72.352 123.121C73.1489 123.496 73.5473 124.023 73.5473 124.703ZM80.9653 117.355C80.9653 117.988 80.6137 118.305 79.9106 118.305C79.2309 118.305 78.6333 118.223 78.1176 118.059C77.6255 117.871 77.1919 117.59 76.8169 117.215C76.4653 116.84 76.1489 116.465 75.8676 116.09C75.6098 115.715 75.3637 115.223 75.1294 114.613C74.895 113.98 74.7075 113.465 74.5669 113.066C74.4262 112.645 74.2505 112.082 74.0395 111.379C73.852 110.652 73.7114 110.125 73.6176 109.797C72.1176 111.297 70.0669 113.008 67.4653 114.93C64.8637 116.828 63.0005 117.777 61.8755 117.777C61.3598 117.777 61.102 117.52 61.102 117.004C61.102 116.488 61.2075 116.008 61.4184 115.562C61.6528 115.094 62.0395 114.59 62.5786 114.051C63.1411 113.488 63.6098 113.031 63.9848 112.68C64.3833 112.328 65.0161 111.801 65.8833 111.098C69.0005 108.59 71.2973 106.48 72.7739 104.77C73.0317 104.277 73.6645 104.031 74.6723 104.031C75.6801 104.031 76.5005 104.371 77.1333 105.051C77.7661 105.707 78.1762 106.422 78.3637 107.195C78.5512 107.945 78.7153 108.789 78.8559 109.727C78.9966 110.641 79.0903 111.168 79.1372 111.309C79.2075 111.449 79.3481 111.801 79.5591 112.363C79.77 112.902 79.9341 113.324 80.0512 113.629C80.1684 113.934 80.3091 114.344 80.4731 114.859C80.8012 115.867 80.9653 116.699 80.9653 117.355ZM89.123 145.586C89.123 146.617 89.8261 147.133 91.2323 147.133C91.9823 147.133 92.9198 146.758 94.0448 146.008C95.1933 145.258 96.2245 144.438 97.1386 143.547C99.5761 141.133 100.959 139.926 101.287 139.926C101.896 139.926 102.201 140.805 102.201 142.562C102.201 144.32 101.65 145.527 100.549 146.184C97.1972 149.207 94.6073 151.047 92.7792 151.703C91.748 152.055 90.6112 152.219 89.369 152.195C88.1269 152.172 86.8964 151.633 85.6776 150.578C84.4589 149.523 83.8495 148.246 83.8495 146.746C83.8495 145.223 84.248 143.5 85.0448 141.578C85.8417 139.656 86.6503 138.016 87.4706 136.656C88.3144 135.273 89.3456 133.68 90.5644 131.875C91.7831 130.047 92.4276 128.91 92.498 128.465L92.4276 128.395C91.6542 128.465 89.7323 129.988 86.662 132.965C83.6151 135.941 81.0956 138.531 79.1034 140.734C77.1112 142.938 74.7323 145.879 71.9667 149.559C71.1933 150.566 70.5605 151.07 70.0683 151.07C69.5761 151.07 68.9198 150.918 68.0995 150.613C67.2558 150.285 66.7401 150.051 66.5526 149.91C66.3651 149.77 66.2714 149.559 66.2714 149.277C66.2714 148.996 66.3534 148.656 66.5175 148.258C66.6815 147.836 66.8456 147.496 67.0097 147.238C67.1503 146.957 67.3964 146.535 67.748 145.973C68.0995 145.41 68.7909 144.227 69.8222 142.422C70.8769 140.594 72.4823 137.875 74.6386 134.266C76.7948 130.656 78.0839 128.477 78.5058 127.727C79.3964 126.18 80.123 125.055 80.6855 124.352C81.7401 123.016 83.5214 122.348 86.0292 122.348C86.5917 122.348 86.873 122.699 86.873 123.402C86.873 124.504 85.8534 126.578 83.8144 129.625L82.3378 131.84C86.3925 127.34 89.8144 124.492 92.6034 123.297C93.9628 122.711 95.1815 122.418 96.2597 122.418C97.3612 122.418 98.2284 122.711 98.8612 123.297C99.5175 123.883 99.8456 124.539 99.8456 125.266C99.8456 125.969 99.5995 126.824 99.1073 127.832C98.6151 128.816 98.1112 129.707 97.5956 130.504C97.1034 131.277 96.4472 132.262 95.6269 133.457C94.8065 134.652 94.3612 135.309 94.2909 135.426C94.2206 135.52 94.0331 135.801 93.7284 136.27C93.4472 136.715 93.2362 137.043 93.0956 137.254C92.955 137.465 92.7206 137.84 92.3925 138.379C92.0644 138.895 91.7948 139.328 91.5839 139.68C91.3964 140.031 91.1503 140.465 90.8456 140.98C90.5644 141.496 90.33 141.941 90.1425 142.316C89.9784 142.691 89.8026 143.102 89.6151 143.547C89.287 144.367 89.123 145.047 89.123 145.586ZM120.308 143.195C121.527 142.422 122.312 141.895 122.663 141.613C123.015 141.309 123.425 140.957 123.894 140.559C124.363 140.16 124.749 139.961 125.054 139.961C125.523 139.961 125.757 140.5 125.757 141.578C125.757 142.633 125.23 143.781 124.175 145.023C123.144 146.242 121.855 147.285 120.308 148.152C118.761 148.996 117.109 149.734 115.351 150.367C111.859 151.656 108.882 152.301 106.421 152.301C103.984 152.301 101.781 151.504 99.8119 149.91C97.8431 148.293 96.8587 146.195 96.8587 143.617C96.8587 141.016 97.5033 138.426 98.7923 135.848C100.081 133.246 101.734 130.973 103.749 129.027C105.788 127.059 108.144 125.465 110.816 124.246C113.511 123.027 116.171 122.418 118.796 122.418C120.062 122.418 121.199 122.781 122.206 123.508C123.214 124.234 123.718 125.23 123.718 126.496C123.718 127.762 123.085 129.285 121.82 131.066C120.577 132.824 119.312 133.703 118.023 133.703C116.523 133.703 115.773 132.988 115.773 131.559C115.773 131.184 116.124 130.516 116.827 129.555C117.531 128.594 117.882 127.949 117.882 127.621C117.882 127.27 117.753 127.094 117.495 127.094C116.206 127.094 114.824 127.539 113.347 128.43C111.87 129.32 110.523 130.258 109.304 131.242C108.109 132.227 106.972 133.328 105.894 134.547C103.55 137.195 102.378 139.949 102.378 142.809C102.378 143.957 102.742 144.953 103.468 145.797C104.218 146.617 105.46 147.027 107.195 147.027C108.952 147.027 110.71 146.828 112.468 146.43C114.226 146.008 115.667 145.562 116.792 145.094C117.941 144.602 119.113 143.969 120.308 143.195ZM145.2 112.398C145.2 113.734 144.579 115.082 143.337 116.441C142.095 117.777 140.794 118.445 139.434 118.445C138.098 118.445 137.43 117.742 137.43 116.336C137.43 114.93 138.016 113.594 139.188 112.328C140.384 111.039 141.696 110.395 143.126 110.395C143.759 110.395 144.263 110.57 144.638 110.922C145.013 111.273 145.2 111.766 145.2 112.398ZM139.505 143.09C139.505 143.793 139.434 144.297 139.294 144.602C138.145 146.945 136.317 148.844 133.809 150.297C131.302 151.727 129.122 152.441 127.27 152.441C125.419 152.441 123.825 151.82 122.489 150.578C121.153 149.336 120.485 148.07 120.485 146.781C120.485 145.492 121.13 143.617 122.419 141.156C123.708 138.695 124.997 136.422 126.286 134.336C127.575 132.25 128.22 131.125 128.22 130.961C128.22 130.773 127.973 130.422 127.481 129.906C127.013 129.391 126.778 129.016 126.778 128.781C126.778 128.523 127.259 127.879 128.22 126.848C129.204 125.793 130.388 124.762 131.77 123.754C133.177 122.723 134.243 122.207 134.97 122.207C135.72 122.207 136.388 122.535 136.973 123.191C137.559 123.848 137.852 124.445 137.852 124.984C137.852 125.523 135.063 130.598 129.485 140.207C129.415 140.348 129.216 140.664 128.888 141.156C128.583 141.625 128.337 142.023 128.149 142.352C127.985 142.656 127.786 143.031 127.552 143.477C127.083 144.414 126.848 145.199 126.848 145.832C126.848 146.629 127.388 147.027 128.466 147.027C129.544 147.027 130.657 146.664 131.805 145.938C132.977 145.188 133.985 144.367 134.829 143.477C137.032 141.109 138.286 139.926 138.591 139.926C139.2 139.926 139.505 140.98 139.505 143.09ZM162.323 124.281C164.104 124.281 164.994 124.891 164.994 126.109C164.994 126.766 164.842 127.246 164.537 127.551C164.233 127.855 163.576 128.875 162.569 130.609C161.584 132.32 160.483 134.523 159.264 137.219C158.069 139.891 157.295 142.176 156.944 144.074C156.873 144.309 156.838 144.637 156.838 145.059C156.838 146.348 157.19 146.992 157.893 146.992C158.596 146.992 159.428 146.664 160.389 146.008C161.35 145.328 162.205 144.613 162.955 143.863C163.705 143.09 164.432 142.305 165.135 141.508C165.862 140.711 166.295 140.254 166.436 140.137C166.576 140.02 166.787 139.961 167.069 139.961C167.514 139.961 167.783 140.301 167.877 140.98C167.971 141.66 168.018 142.363 168.018 143.09C168.018 143.816 167.948 144.32 167.807 144.602C167.127 145.938 165.627 147.543 163.307 149.418C161.01 151.293 158.912 152.23 157.014 152.23C155.139 152.23 153.756 151.656 152.865 150.508C151.975 149.359 151.53 148.094 151.53 146.711C151.53 145.305 151.764 144.074 152.233 143.02C150.287 145.551 148.049 147.695 145.518 149.453C143.01 151.211 140.959 152.09 139.365 152.09C137.772 152.09 136.471 151.609 135.463 150.648C134.174 149.453 133.53 147.801 133.53 145.691C133.53 143.559 133.998 141.426 134.936 139.293C135.897 137.137 137.151 135.18 138.698 133.422C140.244 131.641 141.944 130.023 143.795 128.57C147.686 125.523 151.272 124 154.553 124C155.819 124 156.85 124.211 157.647 124.633C158.444 125.055 158.948 125.582 159.158 126.215C159.721 125.371 160.19 124.844 160.565 124.633C160.963 124.398 161.549 124.281 162.323 124.281ZM157.647 128.184C153.639 128.184 149.49 130.41 145.201 134.863C143.678 136.457 142.272 138.367 140.983 140.594C139.717 142.82 139.084 144.344 139.084 145.164C139.084 145.984 139.319 146.395 139.787 146.395C140.444 146.395 142.272 145.105 145.272 142.527C148.272 139.926 150.264 138.016 151.248 136.797C152.326 135.438 154.459 132.566 157.647 128.184ZM221.071 98.3008C221.517 98.3008 221.868 98.4414 222.126 98.7227C222.384 99.0039 222.513 99.2969 222.513 99.6016C222.513 99.8828 222.278 100.422 221.81 101.219C221.364 101.992 220.321 103.703 218.681 106.352C217.04 108.977 215.763 111.039 214.849 112.539C209.528 121.188 205.357 128.5 202.333 134.477C199.31 140.453 197.798 144.062 197.798 145.305V145.586C197.798 146.547 198.15 147.027 198.853 147.027C199.556 147.027 200.4 146.699 201.384 146.043C202.392 145.387 203.271 144.684 204.021 143.934C204.771 143.184 205.521 142.41 206.271 141.613C207.044 140.793 207.513 140.312 207.677 140.172C207.841 140.031 208.052 139.961 208.31 139.961C208.708 139.961 208.966 140.219 209.083 140.734C209.2 141.227 209.259 141.93 209.259 142.844C209.259 143.734 209.189 144.32 209.048 144.602C208.368 145.914 206.868 147.52 204.548 149.418C202.251 151.293 200.071 152.23 198.009 152.23C194.493 152.23 192.735 150.742 192.735 147.766C192.735 145.914 193.439 143.488 194.845 140.488C192.946 142.949 191.013 145.047 189.044 146.781C185.388 149.969 182.212 151.562 179.517 151.562C178.017 151.562 176.903 151.035 176.177 149.98C175.474 148.926 175.122 147.414 175.122 145.445C175.122 143.453 175.896 141.074 177.443 138.309C178.989 135.543 180.911 133.059 183.208 130.855C185.528 128.629 188.095 126.777 190.907 125.301C193.72 123.801 196.31 123.051 198.677 123.051C199.427 123.051 200.306 123.508 201.314 124.422C201.993 123.344 203.247 121.188 205.075 117.953C210.818 108.273 214.614 102.367 216.466 100.234C217.45 98.9453 218.985 98.3008 221.071 98.3008ZM199.169 127.727C195.794 128.477 192.653 130.047 189.747 132.438C186.841 134.828 184.661 137.336 183.208 139.961C181.755 142.562 181.028 144.25 181.028 145.023C181.028 145.797 181.193 146.184 181.521 146.184C182.927 146.184 186.407 143.043 191.962 136.762C194.728 133.668 197.13 130.656 199.169 127.727ZM229.018 124.211C229.721 124.211 230.436 124.527 231.163 125.16C231.913 125.793 232.288 126.766 232.288 128.078C232.288 129.367 231.831 131.055 230.917 133.141C230.003 135.203 228.749 137.312 227.155 139.469C225.561 141.602 223.803 143.617 221.881 145.516C219.983 147.391 217.92 148.938 215.694 150.156C213.491 151.352 211.487 151.949 209.682 151.949C207.878 151.949 206.424 151.387 205.323 150.262C204.245 149.113 203.706 147.531 203.706 145.516C203.706 143.477 204.198 141.227 205.182 138.766C206.19 136.305 207.479 134.137 209.049 132.262C210.62 130.363 212.319 128.664 214.147 127.164C217.967 124.094 221.319 122.559 224.202 122.559C225.491 122.559 226.463 122.875 227.12 123.508C227.354 123.719 227.471 123.906 227.471 124.07V124.281C227.799 124.234 228.315 124.211 229.018 124.211ZM225.467 128.887H225.221C224.401 128.887 223.991 128.289 223.991 127.094C222.28 127.656 220.487 128.641 218.612 130.047C216.737 131.453 215.061 133.117 213.585 135.039C210.585 138.883 209.061 142.129 209.014 144.777C209.014 146.09 209.495 146.746 210.456 146.746C211.417 146.746 212.846 146.113 214.745 144.848C216.643 143.582 218.518 141.777 220.37 139.434C222.245 137.09 223.639 135.062 224.553 133.352C225.491 131.617 225.96 130.445 225.96 129.836C225.96 129.203 225.795 128.887 225.467 128.887ZM233.941 143.969L233.906 144.531C233.906 145.117 234.129 145.621 234.574 146.043C235.02 146.465 235.43 146.676 235.805 146.676C238.617 146.676 241.102 146.254 243.258 145.41C245.438 144.566 246.527 143.723 246.527 142.879C246.527 142.48 246.129 142.141 245.332 141.859C244.559 141.555 243.234 141.191 241.359 140.77C239.508 140.324 238.16 139.984 237.316 139.75C236.473 139.492 235.805 139.258 235.312 139.047C234.82 138.836 234.316 138.543 233.801 138.168C232.699 137.395 232.148 136.246 232.148 134.723C232.148 133.176 232.711 131.652 233.836 130.152C234.984 128.629 236.414 127.328 238.125 126.25C239.836 125.172 241.676 124.223 243.645 123.402C247.535 121.785 250.805 120.977 253.453 120.977C256.055 120.977 257.66 121.539 258.27 122.664C258.457 123.062 258.551 123.508 258.551 124V124.246C258.551 125.488 258.281 126.461 257.742 127.164C257.227 127.867 256.395 128.5 255.246 129.062C254.121 129.625 253.219 129.906 252.539 129.906C251.883 129.906 251.461 129.859 251.273 129.766C251.109 129.672 250.969 129.555 250.852 129.414C250.734 129.25 250.582 129.133 250.395 129.062C250.23 128.992 250.148 128.816 250.148 128.535C250.148 128.254 250.266 127.973 250.5 127.691C250.734 127.387 250.898 127.07 250.992 126.742C249.445 126.812 247.828 127.176 246.141 127.832C244.453 128.465 243 129.18 241.781 129.977C240.586 130.773 239.59 131.535 238.793 132.262C237.996 132.988 237.598 133.527 237.598 133.879C237.598 134.207 238.137 134.477 239.215 134.688C244.066 135.648 247.254 136.48 248.777 137.184C250.301 137.887 251.355 138.684 251.941 139.574C252.527 140.465 252.82 141.273 252.82 142C252.82 143.5 252.223 144.918 251.027 146.254C249.832 147.59 248.355 148.68 246.598 149.523C242.824 151.375 239.531 152.301 236.719 152.301C233.93 152.301 231.996 151.867 230.918 151C229.863 150.156 229.336 149.148 229.336 147.977C229.336 146.805 229.629 145.727 230.215 144.742C230.824 143.734 231.598 143.23 232.535 143.23C233.473 143.23 233.941 143.477 233.941 143.969ZM322.468 138.027L322.749 139.363C322.749 139.926 322.456 140.594 321.87 141.367C320.323 143.383 317.839 145.703 314.417 148.328C311.018 150.93 308.511 152.23 306.893 152.23C305.276 152.23 304.011 151.762 303.097 150.824C302.182 149.863 301.725 148.773 301.725 147.555C301.725 146.102 303.249 142.891 306.296 137.922C310.866 130.539 316.702 121.914 323.804 112.047C322.304 113.594 318.319 117.766 311.85 124.562C297.53 139.562 289.163 148.059 286.749 150.051C286.35 150.379 285.765 150.543 284.991 150.543C284.241 150.543 283.444 150.238 282.6 149.629C281.757 148.996 281.335 148.293 281.335 147.52V147.344C281.429 146.359 283.69 141.543 288.12 132.895C292.55 124.246 296.265 117.367 299.265 112.258C294.835 117.133 290.358 122.57 285.835 128.57C277.233 139.961 270.94 149.664 266.956 157.68C266.604 158.43 266.171 158.805 265.655 158.805C265.14 158.805 264.39 158.676 263.405 158.418C261.343 157.855 260.311 156.871 260.311 155.465C260.311 154.621 262.034 151.609 265.479 146.43C268.925 141.227 272.921 135.555 277.468 129.414C282.015 123.25 286.725 117.32 291.6 111.625C298.327 103.75 302.651 99.8125 304.573 99.8125C304.878 99.8125 305.171 99.8945 305.452 100.059C305.733 100.199 305.909 100.27 305.979 100.27C306.05 100.27 306.12 100.234 306.19 100.164C306.495 99.7891 307.093 99.6016 307.983 99.6016C308.897 99.6016 309.776 99.7773 310.62 100.129C311.487 100.48 311.921 100.879 311.921 101.324C311.921 101.605 310.749 103.844 308.405 108.039C300.554 121.961 295.28 131.523 292.585 136.727C295.163 133.609 298.843 129.473 303.624 124.316C308.429 119.16 313.468 114.016 318.741 108.883C325.608 102.227 329.71 98.8984 331.046 98.8984C331.585 98.8984 332.265 99.0156 333.085 99.25C334.538 99.6719 335.932 99.8828 337.268 99.8828C337.643 99.9531 337.96 100.117 338.218 100.375C338.499 100.609 338.64 100.855 338.64 101.113C338.64 101.371 338.569 101.582 338.429 101.746C330.811 111.871 324.39 120.801 319.163 128.535C313.936 136.27 310.714 141.496 309.495 144.215C311.956 143.699 315.624 140.758 320.499 135.391C320.71 135.109 320.862 134.922 320.956 134.828C321.05 134.734 321.132 134.641 321.202 134.547C321.6 134.078 321.905 134.371 322.116 135.426C322.21 136.035 322.268 136.469 322.292 136.727C322.339 136.961 322.374 137.219 322.397 137.5C322.444 137.758 322.468 137.934 322.468 138.027ZM349.68 124.281C351.461 124.281 352.352 124.891 352.352 126.109C352.352 126.766 352.2 127.246 351.895 127.551C351.59 127.855 350.934 128.875 349.926 130.609C348.942 132.32 347.84 134.523 346.621 137.219C345.426 139.891 344.653 142.176 344.301 144.074C344.231 144.309 344.196 144.637 344.196 145.059C344.196 146.348 344.547 146.992 345.25 146.992C345.953 146.992 346.785 146.664 347.746 146.008C348.707 145.328 349.563 144.613 350.313 143.863C351.063 143.09 351.789 142.305 352.492 141.508C353.219 140.711 353.653 140.254 353.793 140.137C353.934 140.02 354.145 139.961 354.426 139.961C354.871 139.961 355.141 140.301 355.235 140.98C355.328 141.66 355.375 142.363 355.375 143.09C355.375 143.816 355.305 144.32 355.164 144.602C354.485 145.938 352.985 147.543 350.664 149.418C348.367 151.293 346.27 152.23 344.371 152.23C342.496 152.23 341.114 151.656 340.223 150.508C339.332 149.359 338.887 148.094 338.887 146.711C338.887 145.305 339.121 144.074 339.59 143.02C337.645 145.551 335.407 147.695 332.875 149.453C330.367 151.211 328.317 152.09 326.723 152.09C325.129 152.09 323.828 151.609 322.821 150.648C321.532 149.453 320.887 147.801 320.887 145.691C320.887 143.559 321.356 141.426 322.293 139.293C323.254 137.137 324.508 135.18 326.055 133.422C327.602 131.641 329.301 130.023 331.153 128.57C335.043 125.523 338.629 124 341.91 124C343.176 124 344.207 124.211 345.004 124.633C345.801 125.055 346.305 125.582 346.516 126.215C347.078 125.371 347.547 124.844 347.922 124.633C348.321 124.398 348.907 124.281 349.68 124.281ZM345.004 128.184C340.996 128.184 336.848 130.41 332.559 134.863C331.035 136.457 329.629 138.367 328.34 140.594C327.075 142.82 326.442 144.344 326.442 145.164C326.442 145.984 326.676 146.395 327.145 146.395C327.801 146.395 329.629 145.105 332.629 142.527C335.629 139.926 337.621 138.016 338.606 136.797C339.684 135.438 341.817 132.566 345.004 128.184ZM374.924 105.719L376.365 106.07C376.576 106.07 376.763 106.176 376.927 106.387C377.092 106.598 377.174 106.797 377.174 106.984C377.174 107.172 376.927 107.676 376.435 108.496C375.943 109.316 375.357 110.254 374.677 111.309C374.021 112.34 373.67 112.902 373.623 112.996C375.451 112.855 376.74 112.785 377.49 112.785C378.263 112.785 378.791 112.844 379.072 112.961C379.353 113.055 379.67 113.348 380.021 113.84C380.396 114.309 380.736 114.672 381.041 114.93C381.345 115.164 381.498 115.527 381.498 116.02C381.498 116.512 381.193 116.934 380.584 117.285C379.998 117.613 379.365 117.812 378.685 117.883C373.248 118.422 370.248 118.703 369.685 118.727C367.787 121.633 365.127 126.168 361.705 132.332C358.306 138.473 356.502 142.316 356.291 143.863C356.197 144.566 356.15 145.141 356.15 145.586C356.15 146.5 356.631 146.957 357.592 146.957C358.552 146.957 359.619 146.594 360.791 145.867C361.963 145.117 363.041 144.309 364.025 143.441C366.65 141.098 368.056 139.926 368.244 139.926C368.853 139.926 369.158 140.98 369.158 143.09C369.158 144.238 368.631 145.27 367.576 146.184C365.209 148.223 363.217 149.758 361.599 150.789C359.982 151.82 358.365 152.336 356.748 152.336C356.396 152.336 356.068 152.301 355.763 152.23C353.888 151.879 352.506 151.199 351.615 150.191C350.748 149.16 350.314 147.777 350.314 146.043C350.338 144.309 350.853 142.211 351.861 139.75C352.892 137.266 354.181 134.629 355.728 131.84C358.26 127.293 360.791 123.027 363.322 119.043L361.986 119.219C359.267 119.523 357.685 119.676 357.24 119.676H356.924C356.244 119.676 355.588 119.547 354.955 119.289C354.322 119.008 354.006 118.668 354.006 118.27C354.006 117.871 354.17 117.484 354.498 117.109C354.849 116.734 355.06 116.441 355.131 116.23C355.295 115.715 355.904 115.141 356.959 114.508C358.037 113.875 358.845 113.547 359.385 113.523C359.924 113.477 360.439 113.441 360.931 113.418C361.447 113.395 362.01 113.371 362.619 113.348C363.252 113.324 363.732 113.301 364.06 113.277L367.224 113.137C369.193 110.184 370.541 108.285 371.267 107.441C372.017 106.598 372.451 106.141 372.568 106.07C372.685 105.977 372.92 105.93 373.271 105.93L374.924 105.719ZM388.952 124.703C388.952 126.25 388.32 127.609 387.054 128.781C385.812 129.953 384.394 130.539 382.8 130.539C382.284 130.539 381.945 130.422 381.78 130.188C381.616 129.93 381.534 129.602 381.534 129.203C381.534 128.805 381.581 128.418 381.675 128.043C380.831 128.324 379.894 128.758 378.862 129.344C377.831 129.93 376.566 130.797 375.066 131.945C373.566 133.094 372.816 133.949 372.816 134.512C372.816 134.699 373.085 134.793 373.624 134.793C374.187 134.793 375.042 134.605 376.191 134.23C377.339 133.832 378.136 133.633 378.581 133.633C379.05 133.633 379.355 133.656 379.495 133.703C379.8 133.867 380.128 134.23 380.48 134.793C380.831 135.332 381.007 135.766 381.007 136.094C381.007 136.398 380.702 136.809 380.093 137.324C379.484 137.84 378.792 138.238 378.019 138.52C377.245 138.777 376.73 138.977 376.472 139.117C371.527 141.883 369.054 143.781 369.054 144.812C369.054 146.641 370.612 147.555 373.73 147.555C375.722 147.555 377.726 146.922 379.741 145.656C381.452 144.578 382.987 143.488 384.347 142.387C385.73 141.262 386.597 140.57 386.948 140.312C387.323 140.055 387.605 139.926 387.792 139.926C388.402 139.926 388.706 140.605 388.706 141.965C388.706 143.324 388.624 144.227 388.46 144.672C388.296 145.094 387.827 145.621 387.054 146.254C382.038 150.332 377.292 152.371 372.816 152.371C370.425 152.371 368.515 152.043 367.085 151.387C364.46 150.191 363.148 148.363 363.148 145.902C363.148 142.668 365.386 140.219 369.862 138.555C368.972 138.156 368.398 137.652 368.14 137.043C367.882 136.41 367.753 135.414 367.753 134.055C367.753 132.672 368.386 131.219 369.652 129.695C370.941 128.148 372.511 126.883 374.362 125.898C378.487 123.672 382.167 122.559 385.402 122.559C386.175 122.559 386.96 122.746 387.757 123.121C388.554 123.496 388.952 124.023 388.952 124.703ZM397.672 131.84C403.204 125.559 407.915 122.418 411.805 122.418C412.766 122.418 413.551 122.711 414.161 123.297C414.794 123.859 415.11 124.598 415.11 125.512C415.11 126.426 414.454 127.961 413.141 130.117C411.852 132.25 410.657 134.055 409.555 135.531C408.969 136.281 408.301 136.656 407.551 136.656C406.825 136.656 406.251 136.387 405.829 135.848C405.43 135.309 405.231 134.676 405.231 133.949C405.231 132.332 406.098 130.504 407.833 128.465L407.762 128.395C406.989 128.465 405.067 129.988 401.997 132.965C398.95 135.941 396.348 138.613 394.192 140.98C392.059 143.324 389.739 146.184 387.231 149.559C386.505 150.566 385.883 151.07 385.368 151.07C384.876 151.07 384.219 150.918 383.399 150.613C382.555 150.285 382.051 150.051 381.887 149.91C381.7 149.77 381.606 149.535 381.606 149.207C381.606 148.879 381.7 148.504 381.887 148.082C382.075 147.637 382.426 147.016 382.942 146.219C383.434 145.422 384.184 144.133 385.192 142.352C386.223 140.57 387.817 137.875 389.973 134.266C392.13 130.656 393.419 128.477 393.84 127.727C394.731 126.18 395.458 125.055 396.02 124.352C397.075 123.016 398.856 122.348 401.364 122.348C401.926 122.348 402.208 122.699 402.208 123.402C402.208 124.504 401.188 126.578 399.149 129.625L397.672 131.84ZM432.795 112.398C432.795 113.734 432.174 115.082 430.932 116.441C429.69 117.777 428.389 118.445 427.029 118.445C425.693 118.445 425.025 117.742 425.025 116.336C425.025 114.93 425.611 113.594 426.783 112.328C427.979 111.039 429.291 110.395 430.721 110.395C431.354 110.395 431.857 110.57 432.232 110.922C432.607 111.273 432.795 111.766 432.795 112.398ZM427.1 143.09C427.1 143.793 427.029 144.297 426.889 144.602C425.74 146.945 423.912 148.844 421.404 150.297C418.897 151.727 416.717 152.441 414.865 152.441C413.014 152.441 411.42 151.82 410.084 150.578C408.748 149.336 408.08 148.07 408.08 146.781C408.08 145.492 408.725 143.617 410.014 141.156C411.303 138.695 412.592 136.422 413.881 134.336C415.17 132.25 415.815 131.125 415.815 130.961C415.815 130.773 415.568 130.422 415.076 129.906C414.607 129.391 414.373 129.016 414.373 128.781C414.373 128.523 414.854 127.879 415.815 126.848C416.799 125.793 417.982 124.762 419.365 123.754C420.772 122.723 421.838 122.207 422.565 122.207C423.315 122.207 423.982 122.535 424.568 123.191C425.154 123.848 425.447 124.445 425.447 124.984C425.447 125.523 422.658 130.598 417.08 140.207C417.01 140.348 416.811 140.664 416.482 141.156C416.178 141.625 415.932 142.023 415.744 142.352C415.58 142.656 415.381 143.031 415.147 143.477C414.678 144.414 414.443 145.199 414.443 145.832C414.443 146.629 414.982 147.027 416.061 147.027C417.139 147.027 418.252 146.664 419.4 145.938C420.572 145.188 421.58 144.367 422.424 143.477C424.627 141.109 425.881 139.926 426.186 139.926C426.795 139.926 427.1 140.98 427.1 143.09ZM449.917 124.281C451.699 124.281 452.589 124.891 452.589 126.109C452.589 126.766 452.437 127.246 452.132 127.551C451.828 127.855 451.171 128.875 450.164 130.609C449.179 132.32 448.078 134.523 446.859 137.219C445.664 139.891 444.89 142.176 444.539 144.074C444.468 144.309 444.433 144.637 444.433 145.059C444.433 146.348 444.785 146.992 445.488 146.992C446.191 146.992 447.023 146.664 447.984 146.008C448.945 145.328 449.8 144.613 450.55 143.863C451.3 143.09 452.027 142.305 452.73 141.508C453.457 140.711 453.89 140.254 454.031 140.137C454.171 140.02 454.382 139.961 454.664 139.961C455.109 139.961 455.378 140.301 455.472 140.98C455.566 141.66 455.613 142.363 455.613 143.09C455.613 143.816 455.542 144.32 455.402 144.602C454.722 145.938 453.222 147.543 450.902 149.418C448.605 151.293 446.507 152.23 444.609 152.23C442.734 152.23 441.351 151.656 440.46 150.508C439.57 149.359 439.125 148.094 439.125 146.711C439.125 145.305 439.359 144.074 439.828 143.02C437.882 145.551 435.644 147.695 433.113 149.453C430.605 151.211 428.554 152.09 426.96 152.09C425.367 152.09 424.066 151.609 423.058 150.648C421.769 149.453 421.125 147.801 421.125 145.691C421.125 143.559 421.593 141.426 422.531 139.293C423.492 137.137 424.746 135.18 426.292 133.422C427.839 131.641 429.539 130.023 431.39 128.57C435.281 125.523 438.867 124 442.148 124C443.414 124 444.445 124.211 445.242 124.633C446.039 125.055 446.542 125.582 446.753 126.215C447.316 125.371 447.785 124.844 448.16 124.633C448.558 124.398 449.144 124.281 449.917 124.281ZM445.242 128.184C441.234 128.184 437.085 130.41 432.796 134.863C431.273 136.457 429.867 138.367 428.578 140.594C427.312 142.82 426.679 144.344 426.679 145.164C426.679 145.984 426.914 146.395 427.382 146.395C428.039 146.395 429.867 145.105 432.867 142.527C435.867 139.926 437.859 138.016 438.843 136.797C439.921 135.438 442.054 132.566 445.242 128.184ZM473.86 112.398C473.86 113.734 473.239 115.082 471.997 116.441C470.755 117.777 469.454 118.445 468.095 118.445C466.759 118.445 466.091 117.742 466.091 116.336C466.091 114.93 466.677 113.594 467.849 112.328C469.044 111.039 470.356 110.395 471.786 110.395C472.419 110.395 472.923 110.57 473.298 110.922C473.673 111.273 473.86 111.766 473.86 112.398ZM468.165 143.09C468.165 143.793 468.095 144.297 467.954 144.602C466.806 146.945 464.977 148.844 462.47 150.297C459.962 151.727 457.782 152.441 455.931 152.441C454.079 152.441 452.485 151.82 451.149 150.578C449.813 149.336 449.145 148.07 449.145 146.781C449.145 145.492 449.79 143.617 451.079 141.156C452.368 138.695 453.657 136.422 454.946 134.336C456.235 132.25 456.88 131.125 456.88 130.961C456.88 130.773 456.634 130.422 456.142 129.906C455.673 129.391 455.438 129.016 455.438 128.781C455.438 128.523 455.919 127.879 456.88 126.848C457.864 125.793 459.048 124.762 460.431 123.754C461.837 122.723 462.903 122.207 463.63 122.207C464.38 122.207 465.048 122.535 465.634 123.191C466.22 123.848 466.513 124.445 466.513 124.984C466.513 125.523 463.724 130.598 458.145 140.207C458.075 140.348 457.876 140.664 457.548 141.156C457.243 141.625 456.997 142.023 456.81 142.352C456.645 142.656 456.446 143.031 456.212 143.477C455.743 144.414 455.509 145.199 455.509 145.832C455.509 146.629 456.048 147.027 457.126 147.027C458.204 147.027 459.317 146.664 460.466 145.938C461.638 145.188 462.645 144.367 463.489 143.477C465.692 141.109 466.946 139.926 467.251 139.926C467.86 139.926 468.165 140.98 468.165 143.09ZM468.026 143.969L467.991 144.531C467.991 145.117 468.213 145.621 468.659 146.043C469.104 146.465 469.514 146.676 469.889 146.676C472.702 146.676 475.186 146.254 477.342 145.41C479.522 144.566 480.612 143.723 480.612 142.879C480.612 142.48 480.213 142.141 479.416 141.859C478.643 141.555 477.319 141.191 475.444 140.77C473.592 140.324 472.245 139.984 471.401 139.75C470.557 139.492 469.889 139.258 469.397 139.047C468.905 138.836 468.401 138.543 467.885 138.168C466.784 137.395 466.233 136.246 466.233 134.723C466.233 133.176 466.795 131.652 467.92 130.152C469.069 128.629 470.498 127.328 472.209 126.25C473.92 125.172 475.76 124.223 477.729 123.402C481.62 121.785 484.889 120.977 487.537 120.977C490.139 120.977 491.745 121.539 492.354 122.664C492.541 123.062 492.635 123.508 492.635 124V124.246C492.635 125.488 492.366 126.461 491.827 127.164C491.311 127.867 490.479 128.5 489.33 129.062C488.205 129.625 487.303 129.906 486.623 129.906C485.967 129.906 485.545 129.859 485.358 129.766C485.194 129.672 485.053 129.555 484.936 129.414C484.819 129.25 484.666 129.133 484.479 129.062C484.315 128.992 484.233 128.816 484.233 128.535C484.233 128.254 484.35 127.973 484.584 127.691C484.819 127.387 484.983 127.07 485.077 126.742C483.53 126.812 481.912 127.176 480.225 127.832C478.537 128.465 477.084 129.18 475.866 129.977C474.67 130.773 473.674 131.535 472.877 132.262C472.08 132.988 471.682 133.527 471.682 133.879C471.682 134.207 472.221 134.477 473.299 134.688C478.151 135.648 481.338 136.48 482.862 137.184C484.385 137.887 485.44 138.684 486.026 139.574C486.612 140.465 486.905 141.273 486.905 142C486.905 143.5 486.307 144.918 485.112 146.254C483.916 147.59 482.44 148.68 480.682 149.523C476.909 151.375 473.616 152.301 470.803 152.301C468.014 152.301 466.08 151.867 465.002 151C463.948 150.156 463.42 149.148 463.42 147.977C463.42 146.805 463.713 145.727 464.299 144.742C464.909 143.734 465.682 143.23 466.62 143.23C467.557 143.23 468.026 143.477 468.026 143.969Z" fill="#448BCC"/>
</svg>
